<mxfile host="app.diagrams.net" agent="Mozilla/5.0 (Windows NT 10.0; Win64; x64) AppleWebKit/537.36 (KHTML, like Gecko) Chrome/138.0.0.0 Safari/537.36" version="28.0.9">
  <diagram name="第 1 页" id="jIi_-YIakTyajCElGTT-">
    <mxGraphModel dx="1426" dy="743" grid="1" gridSize="10" guides="1" tooltips="1" connect="1" arrows="1" fold="1" page="1" pageScale="1" pageWidth="1169" pageHeight="827" math="0" shadow="0">
      <root>
        <mxCell id="0" />
        <mxCell id="1" parent="0" />
        <mxCell id="aK55Ml5ozFXgyBLaSb5B-3" value="" style="shape=table;startSize=0;container=1;collapsible=0;childLayout=tableLayout;fontSize=16;points=[[0,0,0,0,0],[0,0.25,0,0,0],[0,0.5,0,0,0],[0,0.75,0,0,0],[0,1,0,0,0],[0.25,0,0,0,0],[0.25,1,0,0,0],[0.5,0,0,0,0],[0.5,1,0,0,0],[0.75,0,0,0,0],[0.75,1,0,0,0],[1,0,0,0,0],[1,0.25,0,0,0],[1,0.5,0,0,0],[1,0.75,0,0,0],[1,1,0,0,0]];strokeColor=default;swimlaneFillColor=none;gradientColor=none;fillColor=none;" parent="1" vertex="1">
          <mxGeometry x="284" y="129" width="536" height="534" as="geometry" />
        </mxCell>
        <mxCell id="aK55Ml5ozFXgyBLaSb5B-88" value="" style="shape=tableRow;horizontal=0;startSize=0;swimlaneHead=0;swimlaneBody=0;strokeColor=inherit;top=0;left=0;bottom=0;right=0;collapsible=0;dropTarget=0;fillColor=none;points=[[0,0.5],[1,0.5]];portConstraint=eastwest;fontSize=16;" parent="aK55Ml5ozFXgyBLaSb5B-3" vertex="1">
          <mxGeometry width="536" height="54" as="geometry" />
        </mxCell>
        <mxCell id="aK55Ml5ozFXgyBLaSb5B-89" value="IPC 交握通道開啟&lt;div&gt;40001.0&lt;/div&gt;" style="shape=partialRectangle;html=1;whiteSpace=wrap;connectable=0;strokeColor=inherit;overflow=hidden;fillColor=none;top=0;left=0;bottom=0;right=0;pointerEvents=1;fontSize=16;" parent="aK55Ml5ozFXgyBLaSb5B-88" vertex="1">
          <mxGeometry width="143" height="54" as="geometry">
            <mxRectangle width="143" height="54" as="alternateBounds" />
          </mxGeometry>
        </mxCell>
        <mxCell id="aK55Ml5ozFXgyBLaSb5B-90" value="" style="shape=partialRectangle;html=1;whiteSpace=wrap;connectable=0;strokeColor=inherit;overflow=hidden;fillColor=none;top=0;left=0;bottom=0;right=0;pointerEvents=1;fontSize=16;" parent="aK55Ml5ozFXgyBLaSb5B-88" vertex="1">
          <mxGeometry x="143" width="393" height="54" as="geometry">
            <mxRectangle width="393" height="54" as="alternateBounds" />
          </mxGeometry>
        </mxCell>
        <mxCell id="aK55Ml5ozFXgyBLaSb5B-8" value="" style="shape=tableRow;horizontal=0;startSize=0;swimlaneHead=0;swimlaneBody=0;strokeColor=inherit;top=0;left=0;bottom=0;right=0;collapsible=0;dropTarget=0;fillColor=none;points=[[0,0.5],[1,0.5]];portConstraint=eastwest;fontSize=16;" parent="aK55Ml5ozFXgyBLaSb5B-3" vertex="1">
          <mxGeometry y="54" width="536" height="57" as="geometry" />
        </mxCell>
        <mxCell id="aK55Ml5ozFXgyBLaSb5B-9" value="FUNC &amp;gt; 0&lt;div&gt;40002 &amp;gt; 0&lt;/div&gt;" style="shape=partialRectangle;html=1;whiteSpace=wrap;connectable=0;strokeColor=inherit;overflow=hidden;fillColor=none;top=0;left=0;bottom=0;right=0;pointerEvents=1;fontSize=16;" parent="aK55Ml5ozFXgyBLaSb5B-8" vertex="1">
          <mxGeometry width="143" height="57" as="geometry">
            <mxRectangle width="143" height="57" as="alternateBounds" />
          </mxGeometry>
        </mxCell>
        <mxCell id="aK55Ml5ozFXgyBLaSb5B-10" value="" style="shape=partialRectangle;html=1;whiteSpace=wrap;connectable=0;strokeColor=inherit;overflow=hidden;fillColor=none;top=0;left=0;bottom=0;right=0;pointerEvents=1;fontSize=16;" parent="aK55Ml5ozFXgyBLaSb5B-8" vertex="1">
          <mxGeometry x="143" width="393" height="57" as="geometry">
            <mxRectangle width="393" height="57" as="alternateBounds" />
          </mxGeometry>
        </mxCell>
        <mxCell id="aK55Ml5ozFXgyBLaSb5B-52" style="shape=tableRow;horizontal=0;startSize=0;swimlaneHead=0;swimlaneBody=0;strokeColor=inherit;top=0;left=0;bottom=0;right=0;collapsible=0;dropTarget=0;fillColor=none;points=[[0,0.5],[1,0.5]];portConstraint=eastwest;fontSize=16;" parent="aK55Ml5ozFXgyBLaSb5B-3" vertex="1">
          <mxGeometry y="111" width="536" height="73" as="geometry" />
        </mxCell>
        <mxCell id="aK55Ml5ozFXgyBLaSb5B-53" value="PLC 交握狀態&lt;div&gt;閒置&lt;/div&gt;&lt;div&gt;30001.0&lt;/div&gt;" style="shape=partialRectangle;html=1;whiteSpace=wrap;connectable=0;strokeColor=inherit;overflow=hidden;fillColor=none;top=0;left=0;bottom=0;right=0;pointerEvents=1;fontSize=16;" parent="aK55Ml5ozFXgyBLaSb5B-52" vertex="1">
          <mxGeometry width="143" height="73" as="geometry">
            <mxRectangle width="143" height="73" as="alternateBounds" />
          </mxGeometry>
        </mxCell>
        <mxCell id="aK55Ml5ozFXgyBLaSb5B-54" style="shape=partialRectangle;html=1;whiteSpace=wrap;connectable=0;strokeColor=inherit;overflow=hidden;fillColor=none;top=0;left=0;bottom=0;right=0;pointerEvents=1;fontSize=16;" parent="aK55Ml5ozFXgyBLaSb5B-52" vertex="1">
          <mxGeometry x="143" width="393" height="73" as="geometry">
            <mxRectangle width="393" height="73" as="alternateBounds" />
          </mxGeometry>
        </mxCell>
        <mxCell id="aK55Ml5ozFXgyBLaSb5B-70" style="shape=tableRow;horizontal=0;startSize=0;swimlaneHead=0;swimlaneBody=0;strokeColor=inherit;top=0;left=0;bottom=0;right=0;collapsible=0;dropTarget=0;fillColor=none;points=[[0,0.5],[1,0.5]];portConstraint=eastwest;fontSize=16;" parent="aK55Ml5ozFXgyBLaSb5B-3" vertex="1">
          <mxGeometry y="184" width="536" height="70" as="geometry" />
        </mxCell>
        <mxCell id="aK55Ml5ozFXgyBLaSb5B-71" value="PLC 交握狀態&lt;div&gt;交握通道開啟&lt;/div&gt;&lt;div&gt;30001.1&lt;/div&gt;" style="shape=partialRectangle;html=1;whiteSpace=wrap;connectable=0;strokeColor=inherit;overflow=hidden;fillColor=none;top=0;left=0;bottom=0;right=0;pointerEvents=1;fontSize=16;" parent="aK55Ml5ozFXgyBLaSb5B-70" vertex="1">
          <mxGeometry width="143" height="70" as="geometry">
            <mxRectangle width="143" height="70" as="alternateBounds" />
          </mxGeometry>
        </mxCell>
        <mxCell id="aK55Ml5ozFXgyBLaSb5B-72" style="shape=partialRectangle;html=1;whiteSpace=wrap;connectable=0;strokeColor=inherit;overflow=hidden;fillColor=none;top=0;left=0;bottom=0;right=0;pointerEvents=1;fontSize=16;" parent="aK55Ml5ozFXgyBLaSb5B-70" vertex="1">
          <mxGeometry x="143" width="393" height="70" as="geometry">
            <mxRectangle width="393" height="70" as="alternateBounds" />
          </mxGeometry>
        </mxCell>
        <mxCell id="aK55Ml5ozFXgyBLaSb5B-75" style="shape=tableRow;horizontal=0;startSize=0;swimlaneHead=0;swimlaneBody=0;strokeColor=inherit;top=0;left=0;bottom=0;right=0;collapsible=0;dropTarget=0;fillColor=none;points=[[0,0.5],[1,0.5]];portConstraint=eastwest;fontSize=16;" parent="aK55Ml5ozFXgyBLaSb5B-3" vertex="1">
          <mxGeometry y="254" width="536" height="70" as="geometry" />
        </mxCell>
        <mxCell id="aK55Ml5ozFXgyBLaSb5B-76" value="PLC 交握狀態&lt;div&gt;動作執行中&lt;/div&gt;&lt;div&gt;30001.2&lt;/div&gt;" style="shape=partialRectangle;html=1;whiteSpace=wrap;connectable=0;strokeColor=inherit;overflow=hidden;fillColor=none;top=0;left=0;bottom=0;right=0;pointerEvents=1;fontSize=16;" parent="aK55Ml5ozFXgyBLaSb5B-75" vertex="1">
          <mxGeometry width="143" height="70" as="geometry">
            <mxRectangle width="143" height="70" as="alternateBounds" />
          </mxGeometry>
        </mxCell>
        <mxCell id="aK55Ml5ozFXgyBLaSb5B-77" style="shape=partialRectangle;html=1;whiteSpace=wrap;connectable=0;strokeColor=inherit;overflow=hidden;fillColor=none;top=0;left=0;bottom=0;right=0;pointerEvents=1;fontSize=16;" parent="aK55Ml5ozFXgyBLaSb5B-75" vertex="1">
          <mxGeometry x="143" width="393" height="70" as="geometry">
            <mxRectangle width="393" height="70" as="alternateBounds" />
          </mxGeometry>
        </mxCell>
        <mxCell id="aK55Ml5ozFXgyBLaSb5B-60" style="shape=tableRow;horizontal=0;startSize=0;swimlaneHead=0;swimlaneBody=0;strokeColor=inherit;top=0;left=0;bottom=0;right=0;collapsible=0;dropTarget=0;fillColor=none;points=[[0,0.5],[1,0.5]];portConstraint=eastwest;fontSize=16;" parent="aK55Ml5ozFXgyBLaSb5B-3" vertex="1">
          <mxGeometry y="324" width="536" height="70" as="geometry" />
        </mxCell>
        <mxCell id="aK55Ml5ozFXgyBLaSb5B-61" value="PLC 交握狀態&lt;div&gt;動作執行完成&lt;/div&gt;&lt;div&gt;30001.3&lt;/div&gt;" style="shape=partialRectangle;html=1;whiteSpace=wrap;connectable=0;strokeColor=inherit;overflow=hidden;fillColor=none;top=0;left=0;bottom=0;right=0;pointerEvents=1;fontSize=16;" parent="aK55Ml5ozFXgyBLaSb5B-60" vertex="1">
          <mxGeometry width="143" height="70" as="geometry">
            <mxRectangle width="143" height="70" as="alternateBounds" />
          </mxGeometry>
        </mxCell>
        <mxCell id="aK55Ml5ozFXgyBLaSb5B-62" style="shape=partialRectangle;html=1;whiteSpace=wrap;connectable=0;strokeColor=inherit;overflow=hidden;fillColor=none;top=0;left=0;bottom=0;right=0;pointerEvents=1;fontSize=16;" parent="aK55Ml5ozFXgyBLaSb5B-60" vertex="1">
          <mxGeometry x="143" width="393" height="70" as="geometry">
            <mxRectangle width="393" height="70" as="alternateBounds" />
          </mxGeometry>
        </mxCell>
        <mxCell id="aK55Ml5ozFXgyBLaSb5B-56" style="shape=tableRow;horizontal=0;startSize=0;swimlaneHead=0;swimlaneBody=0;strokeColor=inherit;top=0;left=0;bottom=0;right=0;collapsible=0;dropTarget=0;fillColor=none;points=[[0,0.5],[1,0.5]];portConstraint=eastwest;fontSize=16;" parent="aK55Ml5ozFXgyBLaSb5B-3" vertex="1">
          <mxGeometry y="394" width="536" height="70" as="geometry" />
        </mxCell>
        <mxCell id="aK55Ml5ozFXgyBLaSb5B-57" value="PLC 交握流水號&lt;div&gt;30002+1&lt;/div&gt;" style="shape=partialRectangle;html=1;whiteSpace=wrap;connectable=0;strokeColor=inherit;overflow=hidden;fillColor=none;top=0;left=0;bottom=0;right=0;pointerEvents=1;fontSize=16;" parent="aK55Ml5ozFXgyBLaSb5B-56" vertex="1">
          <mxGeometry width="143" height="70" as="geometry">
            <mxRectangle width="143" height="70" as="alternateBounds" />
          </mxGeometry>
        </mxCell>
        <mxCell id="aK55Ml5ozFXgyBLaSb5B-58" style="shape=partialRectangle;html=1;whiteSpace=wrap;connectable=0;strokeColor=inherit;overflow=hidden;fillColor=none;top=0;left=0;bottom=0;right=0;pointerEvents=1;fontSize=16;" parent="aK55Ml5ozFXgyBLaSb5B-56" vertex="1">
          <mxGeometry x="143" width="393" height="70" as="geometry">
            <mxRectangle width="393" height="70" as="alternateBounds" />
          </mxGeometry>
        </mxCell>
        <mxCell id="CeW-MTemfMxPbqHiYguy-1" style="shape=tableRow;horizontal=0;startSize=0;swimlaneHead=0;swimlaneBody=0;strokeColor=inherit;top=0;left=0;bottom=0;right=0;collapsible=0;dropTarget=0;fillColor=none;points=[[0,0.5],[1,0.5]];portConstraint=eastwest;fontSize=16;" vertex="1" parent="aK55Ml5ozFXgyBLaSb5B-3">
          <mxGeometry y="464" width="536" height="70" as="geometry" />
        </mxCell>
        <mxCell id="CeW-MTemfMxPbqHiYguy-2" value="PLC 設備模式&lt;div&gt;手動or自動&lt;/div&gt;&lt;div&gt;30004 = 1 or 2&lt;/div&gt;" style="shape=partialRectangle;html=1;whiteSpace=wrap;connectable=0;strokeColor=inherit;overflow=hidden;fillColor=none;top=0;left=0;bottom=0;right=0;pointerEvents=1;fontSize=16;" vertex="1" parent="CeW-MTemfMxPbqHiYguy-1">
          <mxGeometry width="143" height="70" as="geometry">
            <mxRectangle width="143" height="70" as="alternateBounds" />
          </mxGeometry>
        </mxCell>
        <mxCell id="CeW-MTemfMxPbqHiYguy-3" style="shape=partialRectangle;html=1;whiteSpace=wrap;connectable=0;strokeColor=inherit;overflow=hidden;fillColor=none;top=0;left=0;bottom=0;right=0;pointerEvents=1;fontSize=16;" vertex="1" parent="CeW-MTemfMxPbqHiYguy-1">
          <mxGeometry x="143" width="393" height="70" as="geometry">
            <mxRectangle width="393" height="70" as="alternateBounds" />
          </mxGeometry>
        </mxCell>
        <mxCell id="aK55Ml5ozFXgyBLaSb5B-96" value="" style="rounded=0;whiteSpace=wrap;html=1;fillColor=#647687;fontColor=#ffffff;strokeColor=none;gradientColor=none;" parent="1" vertex="1">
          <mxGeometry x="534" y="143" width="66" height="40" as="geometry" />
        </mxCell>
        <mxCell id="aK55Ml5ozFXgyBLaSb5B-104" value="" style="endArrow=none;dashed=1;html=1;rounded=0;exitX=0;exitY=0;exitDx=0;exitDy=0;entryX=0;entryY=1;entryDx=0;entryDy=0;" parent="1" source="CeW-MTemfMxPbqHiYguy-27" target="aK55Ml5ozFXgyBLaSb5B-96" edge="1">
          <mxGeometry width="50" height="50" relative="1" as="geometry">
            <mxPoint x="534" y="354" as="sourcePoint" />
            <mxPoint x="534" y="190" as="targetPoint" />
          </mxGeometry>
        </mxCell>
        <mxCell id="CeW-MTemfMxPbqHiYguy-27" value="" style="rounded=0;whiteSpace=wrap;html=1;fillColor=#647687;fontColor=#ffffff;strokeColor=none;gradientColor=none;" vertex="1" parent="1">
          <mxGeometry x="534" y="343" width="66" height="40" as="geometry" />
        </mxCell>
        <mxCell id="CeW-MTemfMxPbqHiYguy-34" value="" style="endArrow=none;dashed=1;html=1;rounded=0;entryX=1;entryY=1;entryDx=0;entryDy=0;exitX=0;exitY=0;exitDx=0;exitDy=0;" edge="1" parent="1" source="CeW-MTemfMxPbqHiYguy-35" target="aK55Ml5ozFXgyBLaSb5B-96">
          <mxGeometry width="50" height="50" relative="1" as="geometry">
            <mxPoint x="660" y="340" as="sourcePoint" />
            <mxPoint x="666" y="183" as="targetPoint" />
          </mxGeometry>
        </mxCell>
        <mxCell id="CeW-MTemfMxPbqHiYguy-35" value="" style="rounded=0;whiteSpace=wrap;html=1;fillColor=#647687;fontColor=#ffffff;strokeColor=none;gradientColor=none;" vertex="1" parent="1">
          <mxGeometry x="600" y="414" width="66" height="40" as="geometry" />
        </mxCell>
        <mxCell id="CeW-MTemfMxPbqHiYguy-42" value="" style="rounded=0;whiteSpace=wrap;html=1;fillColor=#647687;fontColor=#ffffff;strokeColor=none;gradientColor=none;" vertex="1" parent="1">
          <mxGeometry x="666" y="483" width="66" height="40" as="geometry" />
        </mxCell>
        <mxCell id="CeW-MTemfMxPbqHiYguy-43" value="" style="rounded=0;whiteSpace=wrap;html=1;fillColor=#647687;fontColor=#ffffff;strokeColor=none;gradientColor=none;" vertex="1" parent="1">
          <mxGeometry x="666" y="553" width="154" height="40" as="geometry" />
        </mxCell>
        <mxCell id="CeW-MTemfMxPbqHiYguy-44" value="" style="rounded=0;whiteSpace=wrap;html=1;fillColor=#647687;fontColor=#ffffff;strokeColor=none;gradientColor=none;" vertex="1" parent="1">
          <mxGeometry x="427" y="273" width="107" height="40" as="geometry" />
        </mxCell>
        <mxCell id="CeW-MTemfMxPbqHiYguy-45" value="" style="rounded=0;whiteSpace=wrap;html=1;fillColor=#647687;fontColor=#ffffff;strokeColor=none;gradientColor=none;" vertex="1" parent="1">
          <mxGeometry x="427" y="623" width="118" height="40" as="geometry" />
        </mxCell>
        <mxCell id="CeW-MTemfMxPbqHiYguy-46" value="" style="rounded=0;whiteSpace=wrap;html=1;fillColor=#647687;fontColor=#ffffff;strokeColor=none;gradientColor=none;" vertex="1" parent="1">
          <mxGeometry x="534" y="623" width="66" height="40" as="geometry" />
        </mxCell>
        <mxCell id="CeW-MTemfMxPbqHiYguy-47" value="" style="rounded=0;whiteSpace=wrap;html=1;fillColor=#647687;fontColor=#ffffff;strokeColor=none;gradientColor=none;" vertex="1" parent="1">
          <mxGeometry x="600" y="623" width="66" height="40" as="geometry" />
        </mxCell>
        <mxCell id="CeW-MTemfMxPbqHiYguy-48" value="" style="rounded=0;whiteSpace=wrap;html=1;fillColor=#647687;fontColor=#ffffff;strokeColor=none;gradientColor=none;" vertex="1" parent="1">
          <mxGeometry x="666" y="623" width="66" height="40" as="geometry" />
        </mxCell>
        <mxCell id="CeW-MTemfMxPbqHiYguy-49" value="" style="rounded=0;whiteSpace=wrap;html=1;fillColor=#647687;fontColor=#ffffff;strokeColor=none;gradientColor=none;" vertex="1" parent="1">
          <mxGeometry x="732" y="623" width="88" height="40" as="geometry" />
        </mxCell>
        <mxCell id="CeW-MTemfMxPbqHiYguy-51" value="" style="endArrow=none;dashed=1;html=1;rounded=0;entryX=1;entryY=1;entryDx=0;entryDy=0;exitX=0;exitY=0;exitDx=0;exitDy=0;" edge="1" parent="1" source="CeW-MTemfMxPbqHiYguy-43" target="CeW-MTemfMxPbqHiYguy-35">
          <mxGeometry width="50" height="50" relative="1" as="geometry">
            <mxPoint x="624" y="541" as="sourcePoint" />
            <mxPoint x="624" y="310" as="targetPoint" />
          </mxGeometry>
        </mxCell>
        <mxCell id="CeW-MTemfMxPbqHiYguy-53" value="" style="rounded=0;whiteSpace=wrap;html=1;fillColor=#647687;fontColor=#ffffff;strokeColor=none;gradientColor=none;" vertex="1" parent="1">
          <mxGeometry x="732" y="273" width="88" height="40" as="geometry" />
        </mxCell>
        <mxCell id="CeW-MTemfMxPbqHiYguy-55" value="" style="endArrow=none;dashed=1;html=1;rounded=0;entryX=0;entryY=1;entryDx=0;entryDy=0;exitX=1;exitY=0;exitDx=0;exitDy=0;" edge="1" parent="1" source="CeW-MTemfMxPbqHiYguy-42" target="CeW-MTemfMxPbqHiYguy-53">
          <mxGeometry width="50" height="50" relative="1" as="geometry">
            <mxPoint x="674" y="549" as="sourcePoint" />
            <mxPoint x="674" y="450" as="targetPoint" />
          </mxGeometry>
        </mxCell>
        <mxCell id="CeW-MTemfMxPbqHiYguy-56" value="" style="rounded=0;whiteSpace=wrap;html=1;fillColor=#647687;fontColor=#ffffff;strokeColor=none;gradientColor=none;" vertex="1" parent="1">
          <mxGeometry x="534" y="200" width="66" height="40" as="geometry" />
        </mxCell>
      </root>
    </mxGraphModel>
  </diagram>
</mxfile>
